#!OML:ASF H:\ColoradoDance\Project 1\Capture day 1\Session 8\male.ASF
:FULLY-SPECIFIED
:DEGREES
93
upperback -0.099843 -9.728890 4.895910
rfoot -7.191370 -11.639800
lradius 86.883904
lthumb 74.807999 636.255005
rradius 26.675501
lwrist 5.535010
rhand -46.358200 -5.689790
rhumerus -365.843994 -43.095600 365.324005
lowerneck -8.384160 -0.893904 1.341370
lhand 61.130402 312.733002
ltibia 41.323601
head 10.701000 -0.205993 1.513340
rwrist 352.518005
lfingers 7.125020
rtoes -24.277800
lowerback 5.064090 -7.169690 -4.809420
rfingers 7.125020
lclavicle -0.000000 0.000000
upperneck 28.855600 -2.574410 5.571770
rfemur -32.817902 -8.790810 5.644360
thorax -1.259100 -4.848820 8.251180
rclavicle -0.000000 0.000000
rtibia 43.155701
lfoot -36.679600 21.012100
lhumerus 19.853500 310.295990 -302.865997
rthumb -19.090200 -34.772900
root -4.875710 17.692301 -10.453000 -26.899200 74.322403 -38.625401
ltoes -4.445060
lfemur -14.906100 -2.754530 13.993500
94
upperback 0.571266 -5.674870 -0.932523
rfoot -18.820499 -4.553830
lradius 121.682999
lthumb 72.068901 696.320007
rradius 23.721701
lwrist 48.012199
rhand -46.813999 -10.318000
rhumerus -399.114014 -35.475601 377.643005
lowerneck -9.639910 3.614420 6.022590
lhand 53.526299 348.648987
ltibia 37.975498
head 10.001800 2.985040 2.596710
rwrist 347.489014
lfingers 7.125020
rtoes -30.415899
lowerback 2.723100 -4.118500 -8.134470
rfingers 7.125020
lclavicle 0.000000 0.000000
upperneck 26.378901 2.314540 9.380140
rfemur -31.054001 -21.423700 21.771200
thorax -0.237281 -2.818790 3.695620
rclavicle 0.000000 0.000000
rtibia 47.262600
lfoot -38.426701 22.109301
lhumerus -1.117270 359.697998 -297.221008
rthumb -19.528500 -39.357300
root -4.976040 17.500500 -9.902120 -85.346199 70.874199 -98.573799
ltoes -3.242370
lfemur -22.033100 -14.932000 30.632601
95
upperback 0.710864 -5.573050 -5.043240
rfoot -27.998400 -5.132470
lradius 101.649002
lthumb 54.986198 764.815002
rradius 24.361700
lwrist 71.200600
rhand -46.883202 -10.445900
rhumerus -401.820007 -35.565102 380.503998
lowerneck -7.021910 9.327260 8.923360
lhand 31.428200 386.665985
ltibia 25.885900
head 8.376920 6.807030 1.589790
rwrist 346.247986
lfingers 7.125020
rtoes -26.018999
lowerback 3.199770 -4.090890 -9.347990
rfingers 7.125020
lclavicle 0.000000 -0.000000
upperneck 22.516300 11.210600 5.854540
rfemur -41.333801 -23.700001 30.278500
thorax -0.658384 -2.665970 0.165833
rclavicle 0.000000 -0.000000
rtibia 61.562000
lfoot -69.596298 11.965000
lhumerus -0.387716 406.049011 -306.278992
rthumb -19.594999 -39.478401
root -5.285940 17.101299 -7.826940 -93.427002 70.465401 -108.072998
ltoes 40.835800
lfemur -21.281500 -37.005901 40.895000
96
upperback 1.902770 -3.848760 -7.025050
rfoot -33.069199 -4.139350
lradius 72.507103
lthumb 37.178902 768.059998
rradius 25.124599
lwrist 74.069901
rhand -46.842899 -10.607300
rhumerus -403.428986 -33.451500 378.881012
lowerneck -5.038900 10.514300 12.347800
lhand 12.167300 382.041992
ltibia 26.687099
head 6.857590 7.606340 0.664763
rwrist 345.380005
lfingers 7.125020
rtoes -22.665701
lowerback 4.795700 -2.825510 -7.736870
rfingers 7.125020
lclavicle -0.000000 0.000000
upperneck 17.928400 12.948200 4.904180
rfemur -49.528599 -23.557600 40.998901
thorax -0.675800 -1.786610 -2.756570
rclavicle -0.000000 0.000000
rtibia 69.345703
lfoot -99.737602 -15.445700
lhumerus 17.338800 415.871002 -304.026001
rthumb -19.556200 -39.643700
root -5.749700 16.756701 -5.987170 -89.786499 68.757797 -105.834999
ltoes 55.038799
lfemur -29.399401 -46.356602 51.076401
97
upperback 2.430690 -3.124160 -8.400790
rfoot -35.111698 -5.209490
lradius 54.836201
lthumb 8.710980 737.466003
rradius 24.754400
lwrist 69.839500
rhand -46.867500 -10.739700
rhumerus -407.115997 -33.459599 381.695007
lowerneck -5.723660 9.984200 14.046100
lhand -17.543400 347.665985
ltibia 25.504200
head 7.330490 7.260840 0.213750
rwrist 343.227997
lfingers 7.125020
rtoes -20.110500
lowerback 5.661110 -2.319790 -7.138420
rfingers 7.125020
lclavicle -0.000000 0.000000
upperneck 18.596201 12.024900 4.248940
rfemur -54.825600 -22.257200 42.746101
thorax -0.721947 -1.385270 -4.554440
rclavicle -0.000000 0.000000
rtibia 74.241798
lfoot -97.602600 -17.724800
lhumerus 34.368099 417.781006 -295.207001
rthumb -19.579901 -39.773701
root -5.984370 16.441999 -5.563940 -89.226700 69.542297 -106.728996
ltoes 55.678001
lfemur -29.728201 -42.998199 52.042702
98
upperback 3.177860 -2.801530 -8.839140
rfoot -35.123501 -5.463990
lradius 49.218300
lthumb 7.308080 734.953979
rradius 23.966801
lwrist 67.949097
rhand -47.161800 -11.012700
rhumerus -409.171997 -32.953400 382.378998
lowerneck -5.824990 9.147710 14.986900
lhand -18.997000 345.100006
ltibia 25.770100
head 7.359320 6.703350 -0.191610
rwrist 345.359009
lfingers 7.125020
rtoes -20.861200
lowerback 6.098910 -2.159370 -6.304370
rfingers 7.125020
lclavicle -0.000000 0.000000
upperneck 18.531000 10.802800 3.767670
rfemur -55.379200 -22.512199 42.632401
thorax -0.241117 -1.209770 -5.510290
rclavicle -0.000000 0.000000
rtibia 74.841103
lfoot -93.942001 -17.462900
lhumerus 42.552898 418.101013 -289.186005
rthumb -19.862801 -40.017700
root -5.978250 16.394501 -5.632310 -90.886101 69.360901 -108.638000
ltoes 56.028400
lfemur -29.763399 -38.980499 51.246700
99
upperback 3.389040 -2.556830 -9.232510
rfoot -36.227501 -6.120730
lradius 45.491901
lthumb 5.370740 734.869995
rradius 24.360001
lwrist 64.840599
rhand -48.442902 -11.053900
rhumerus -407.217987 -32.903000 382.536011
lowerneck -5.867690 8.937870 15.380000
lhand -21.003700 344.958008
ltibia 25.390699
head 7.242150 6.507950 -0.567436
rwrist 345.166992
lfingers 7.125020
rtoes -19.966600
lowerback 6.622570 -2.010070 -4.902200
rfingers 7.125020
lclavicle 0.000000 0.000000
upperneck 17.989500 10.569300 2.893280
rfemur -56.991100 -22.042601 42.932899
thorax -0.386644 -1.066170 -6.733450
rclavicle 0.000000 0.000000
rtibia 77.633904
lfoot -89.936996 -16.663601
lhumerus 45.664600 417.420990 -288.316986
rthumb -21.093901 -39.926498
root -6.028130 16.216200 -5.419060 -91.283302 69.912300 -108.958000
ltoes 56.032700
lfemur -28.789600 -34.459000 50.087200
100
upperback 3.266930 -2.198430 -9.672280
rfoot -40.038799 -7.851610
lradius 38.870201
lthumb 1.572550 732.338013
rradius 24.494600
lwrist 54.132401
rhand -48.716999 -11.227000
rhumerus -402.170990 -35.876499 382.750000
lowerneck -6.736050 9.024840 14.928900
lhand -24.936899 342.364014
ltibia 24.733400
head 6.989150 6.373700 -0.615349
rwrist 346.167999
lfingers 7.125020
rtoes -13.939300
lowerback 7.537780 -1.685200 -4.469180
rfingers 7.125020
lclavicle -0.000000 -0.000000
upperneck 16.809200 10.578200 2.523970
rfemur -60.217499 -18.615900 45.162399
thorax -1.029200 -0.873833 -7.471930
rclavicle -0.000000 -0.000000
rtibia 83.242798
lfoot -87.078796 2.013700
lhumerus 48.397301 419.734009 -290.109985
rthumb -21.357201 -40.070099
root -6.236730 15.806300 -4.347920 -87.522697 72.067703 -104.882004
ltoes 54.706100
lfemur -26.882799 -31.329700 49.701099
101
upperback 4.062840 -1.573340 -10.973200
rfoot -41.749100 -9.806020
lradius 23.029600
lthumb -22.552799 730.106995
rradius 25.299200
lwrist 7.003750
rhand -49.384899 -10.485300
rhumerus -401.606995 -35.127998 381.420013
lowerneck -7.979630 8.584550 16.370800
lhand -49.962200 341.403992
ltibia 33.200100
head 7.194620 6.010160 -0.618973
rwrist 346.608002
lfingers 7.125020
rtoes -6.938500
lowerback 7.710070 -1.346100 -5.123160
rfingers 7.125020
lclavicle -0.000000 -0.000000
upperneck 16.815001 9.448750 3.301760
rfemur -58.008202 -15.203500 49.426601
thorax -0.228618 -0.485337 -8.606020
rclavicle -0.000000 -0.000000
rtibia 81.013702
lfoot -55.814899 35.272099
lhumerus 53.510799 419.266998 -283.589996
rthumb -21.998699 -39.254200
root -6.411430 15.955100 -2.675510 -90.324699 73.433701 -106.639999
ltoes 44.371201
lfemur -30.594101 -12.470700 41.970200
102
upperback 4.776380 -1.893960 -11.286600
rfoot -39.767101 -8.355910
lradius 18.386101
lthumb -26.021400 724.536987
rradius 24.908800
lwrist -11.279200
rhand -49.493698 -10.029600
rhumerus -404.968994 -36.556702 384.569000
lowerneck -9.613090 8.809330 17.215900
lhand -53.580200 336.299011
ltibia 70.335403
head 7.707450 5.964380 -0.957661
rwrist 347.321991
lfingers 7.125020
rtoes -7.974250
lowerback 7.657020 -1.731320 -4.372170
rfingers 7.125020
lclavicle -0.000000 -0.000000
upperneck 17.240801 9.386430 2.362530
rfemur -53.344501 -16.590401 53.232101
thorax 0.483138 -0.598091 -9.383250
rclavicle -0.000000 -0.000000
rtibia 70.322502
lfoot -31.108101 23.837799
lhumerus 30.239201 412.200989 -289.951996
rthumb -22.103100 -38.786201
root -6.561780 16.735001 -1.440340 -94.724998 73.858597 -111.514000
ltoes 33.847099
lfemur -56.876900 25.883101 11.465500
103
upperback 5.227430 -4.040280 -9.305330
rfoot -31.112400 -6.387240
lradius 13.943800
lthumb -25.490499 732.940002
rradius 26.166901
lwrist -18.275400
rhand -49.416100 -9.502900
rhumerus -400.988007 -39.361301 383.115997
lowerneck -8.880940 10.238300 15.154200
lhand -53.025902 344.625000
ltibia 88.342400
head 7.955410 6.864970 -1.248790
rwrist 350.744995
lfingers 7.125020
rtoes -15.218300
lowerback 7.561090 -3.309190 -2.683240
rfingers 7.125020
lclavicle 0.000000 0.000000
upperneck 17.758400 12.162200 -0.347388
rfemur -43.786701 -0.646000 45.179901
thorax 0.728038 -1.745920 -7.986280
rclavicle 0.000000 0.000000
rtibia 58.398102
lfoot -15.101600 22.059601
lhumerus 21.547600 421.608002 -274.553009
rthumb -22.028601 -38.268398
root -6.723090 17.732401 -0.980615 -91.054497 75.775803 -106.848999
ltoes 47.895500
lfemur -67.917397 20.592800 -2.363310
104
upperback 4.312980 -4.854150 -6.917840
rfoot -27.083200 -10.166600
lradius 13.902900
lthumb -31.028500 781.372009
rradius 22.187300
lwrist -13.870200
rhand -49.164700 -9.584430
rhumerus -394.644989 -41.050598 379.023987
lowerneck -5.364630 11.555200 12.345700
lhand -58.820702 393.976013
ltibia 76.006599
head 6.942960 7.863450 -1.816000
rwrist 350.740997
lfingers 7.125020
rtoes -16.818899
lowerback 7.043100 -3.705020 -3.605750
rfingers 7.125020
lclavicle 0.000000 0.000000
upperneck 15.766500 15.274900 -3.684680
rfemur -35.318298 0.005077 42.242100
thorax 0.232968 -2.289640 -4.824750
rclavicle 0.000000 0.000000
rtibia 40.907101
lfoot -41.530602 1.014420
lhumerus 2.470590 417.981995 -277.328003
rthumb -21.787201 -38.378101
root -6.868380 18.883101 -1.208200 -51.837101 76.640198 -69.307297
ltoes 59.029900
lfemur -61.517502 -0.773954 2.769350
105
upperback 3.704790 -4.981710 -5.355860
rfoot -25.275400 -10.899200
lradius 13.299800
lthumb -25.662500 783.676025
rradius 24.940399
lwrist 0.608348
rhand -49.575401 -9.563500
rhumerus -390.763000 -41.914101 379.988007
lowerneck -4.042620 11.766400 12.192900
lhand -53.205399 395.385986
ltibia 73.027802
head 6.754260 8.095360 -1.933460
rwrist 349.721985
lfingers 7.125020
rtoes -8.761010
lowerback 6.308390 -3.717910 -4.280860
rfingers 7.125020
lclavicle 0.000000 -0.000000
upperneck 15.702300 15.782400 -4.036500
rfemur -35.071201 -5.314140 44.136101
thorax 0.193994 -2.415630 -2.833950
rclavicle 0.000000 -0.000000
rtibia 43.144402
lfoot -43.913700 2.764080
lhumerus -9.951840 414.770996 -282.743011
rthumb -22.181601 -38.310902
root -6.526870 18.742800 -1.248670 -37.074799 73.480301 -55.043499
ltoes 59.624500
lfemur -56.553299 -6.730330 3.989310
